HIERARCHY
ROOT Hips
{
	OFFSET 0.000000 0.000000 0.000000 
	CHANNELS 6 Xposition Yposition Zposition Zrotation Xrotation Yrotation
	JOINT Spine
	{
		OFFSET -0.000000 8.280624 0.000000 
		CHANNELS 3 Zrotation Xrotation Yrotation
		JOINT Spine1
		{
			OFFSET -0.000000 24.860672 0.000000 
			CHANNELS 3 Zrotation Xrotation Yrotation
			JOINT Neck
			{
				OFFSET -0.000000 24.758574 2.250779 
				CHANNELS 3 Zrotation Xrotation Yrotation
				JOINT Head
				{
					OFFSET -0.000000 14.137651 -2.019665 
					CHANNELS 3 Zrotation Xrotation Yrotation
					End Site
					{
						OFFSET -0.000000 25.245806 0.000000 
					}
				}
			}
			JOINT LeftShoulder
			{
				OFFSET 4.021533 22.370487 -0.301823 
				CHANNELS 3 Zrotation Xrotation Yrotation
				JOINT LeftArm
				{
					OFFSET 12.928750 0.000000 0.000000 
					CHANNELS 3 Zrotation Xrotation Yrotation
					JOINT LeftForeArm
					{
						OFFSET 29.110218 0.000000 0.000000 
						CHANNELS 3 Zrotation Xrotation Yrotation
						JOINT LeftHand
						{
							OFFSET 26.112843 0.000000 0.000000 
							CHANNELS 3 Zrotation Xrotation Yrotation
							End Site
							{
								OFFSET 15.147485 0.000000 0.000000 
							}
						}
					}
				}
			}
			JOINT RightShoulder
			{
				OFFSET -4.040554 22.370487 -0.301823 
				CHANNELS 3 Zrotation Xrotation Yrotation
				JOINT RightArm
				{
					OFFSET -12.928750 0.000000 0.000000 
					CHANNELS 3 Zrotation Xrotation Yrotation
					JOINT RightForeArm
					{
						OFFSET -29.110218 0.000000 0.000000 
						CHANNELS 3 Zrotation Xrotation Yrotation
						JOINT RightHand
						{
							OFFSET -26.112843 0.000000 0.000000 
							CHANNELS 3 Zrotation Xrotation Yrotation
							End Site
							{
								OFFSET -15.147485 0.000000 0.000000 
							}
						}
					}
				}
			}
		}
	}
	JOINT LeftUpLeg
	{
		OFFSET 10.098323 0.000000 0.000000 
		CHANNELS 3 Zrotation Xrotation Yrotation
		JOINT LeftLeg
		{
			OFFSET -0.000000 -44.180832 0.000000 
			CHANNELS 3 Zrotation Xrotation Yrotation
			JOINT LeftFoot
			{
				OFFSET -0.000000 -40.401024 0.000000 
				CHANNELS 3 Zrotation Xrotation Yrotation
				JOINT LeftToeBase
				{
					OFFSET -0.000000 -6.563910 15.147485 
					CHANNELS 3 Zrotation Xrotation Yrotation
					End Site
					{
						OFFSET -0.000000 0.000000 4.039329 
					}
				}
			}
		}
	}
	JOINT RightUpLeg
	{
		OFFSET -10.098323 0.000000 0.000000 
		CHANNELS 3 Zrotation Xrotation Yrotation
		JOINT RightLeg
		{
			OFFSET -0.000000 -44.180832 0.000000 
			CHANNELS 3 Zrotation Xrotation Yrotation
			JOINT RightFoot
			{
				OFFSET -0.000000 -40.401024 0.000000 
				CHANNELS 3 Zrotation Xrotation Yrotation
				JOINT RightToeBase
				{
					OFFSET -0.000000 -6.563910 15.147485 
					CHANNELS 3 Zrotation Xrotation Yrotation
					End Site
					{
						OFFSET -0.000000 0.000000 4.039329 
					}
				}
			}
		}
	}
}
MOTION
Frames: 7
Frame Time: 0.008333
-23.517275 95.280746 29.955345 -1.214021 17.700336 -176.840866 -1.672315 8.481620 1.254195 0.638698 -0.638461 1.133793 4.680250 25.104837 20.958855 -16.011629 3.378380 20.530941 15.712017 -0.677249 -7.637290 -16.235870 -2.901752 0.946194 1.368698 1.093859 1.729820 -20.025459 1.582371 -2.883742 -19.064997 1.603133 -2.666537 23.889757 -8.792934 3.934208 -5.279508 -0.796125 1.889333 18.066708 1.662804 14.834977 -0.898519 27.999430 -3.685269 1.156160 -4.513387 6.165768 -6.317225 4.381856 6.934465 0.000000 0.000000 0.000000 2.463075 28.003172 -0.672179 -0.177317 -0.591985 0.306901 3.127073 -1.446390 -20.378000 0.000000 0.000000 0.000000 
-23.527414 95.286804 29.945139 -1.231310 17.713654 -176.838303 -1.686109 8.489354 1.260772 0.659536 -0.651672 1.139414 4.721337 25.283072 21.284956 -16.315304 3.253807 20.836866 15.719825 -0.680320 -7.639847 -16.241026 -2.919178 0.953395 1.344916 1.244640 1.768520 -19.993645 1.764563 -3.067703 -19.056583 1.606265 -2.689888 23.871979 -8.817417 3.943998 -5.274309 -0.806661 1.892439 18.108385 1.652789 14.803324 -1.082947 27.819689 -3.018735 1.372291 -4.116743 5.670546 -6.464789 4.210503 6.849535 0.000000 0.000000 0.000000 2.439340 28.029129 -0.668328 -0.174985 -0.600238 0.306767 3.139813 -1.439153 -20.389874 0.000000 0.000000 0.000000 
-23.538546 95.292984 29.933966 -1.245239 17.726469 -176.831909 -1.686913 8.495713 1.261399 0.673197 -0.663123 1.139990 4.744831 25.398373 21.660896 -16.593321 3.235668 21.208710 15.731336 -0.687471 -7.634037 -16.250437 -2.892469 0.948502 1.335543 1.286272 1.764374 -19.968948 1.804159 -3.058823 -19.053913 1.597584 -2.704588 23.857351 -8.850480 3.941127 -5.268418 -0.812414 1.900344 18.171663 1.648109 14.756926 -1.109965 27.837881 -3.006455 1.385569 -4.123405 5.781747 -6.469864 4.264915 6.743557 0.000000 0.000000 0.000000 2.422883 28.058699 -0.645501 -0.176030 -0.615781 0.289668 3.149820 -1.428972 -20.405745 0.000000 0.000000 0.000000 
-23.549643 95.297432 29.922590 -1.258031 17.739845 -176.824905 -1.688086 8.503552 1.263110 0.690551 -0.675167 1.141723 4.774600 25.623814 22.037266 -16.953318 3.052721 21.553955 15.739737 -0.687222 -7.626560 -16.257744 -2.865038 0.931584 1.330256 1.302035 1.755851 -19.989143 1.812508 -3.012778 -19.046219 1.595942 -2.713109 23.830513 -8.872494 3.926446 -5.217029 -0.888254 1.921378 18.082830 1.559051 14.747201 -1.128570 27.861845 -3.009933 1.389060 -4.119461 5.684328 -6.509222 4.261077 6.857714 0.000000 0.000000 0.000000 2.406754 28.084686 -0.663856 -0.178116 -0.627381 0.302992 3.163393 -1.411909 -20.403650 0.000000 0.000000 0.000000 
-23.561222 95.303146 29.910940 -1.274675 17.753588 -176.817612 -1.690107 8.511046 1.265004 0.704880 -0.683966 1.143473 4.815516 25.686331 22.370420 -17.235113 3.136504 21.894814 15.752341 -0.690268 -7.612072 -16.271683 -2.848911 0.899016 1.337444 1.311194 1.758558 -20.025969 1.810663 -2.945368 -19.046558 1.603098 -2.728256 23.818544 -8.912890 3.926896 -5.255959 -0.826413 1.917161 18.266556 1.625646 14.624338 -1.152139 27.888054 -3.024136 1.394278 -4.135417 5.771527 -6.497540 4.311802 6.789254 0.000000 0.000000 0.000000 2.388311 28.114510 -0.651137 -0.182643 -0.640946 0.299810 3.180563 -1.400200 -20.417023 0.000000 0.000000 0.000000 
-23.572170 95.307114 29.899654 -1.286429 17.764887 -176.812408 -1.685257 8.519175 1.264031 0.716954 -0.697622 1.142901 4.785321 25.825695 22.720755 -17.485558 3.048431 22.228529 15.762575 -0.695117 -7.596155 -16.279041 -2.827703 0.875473 1.335850 1.339582 1.773180 -20.068308 1.835214 -2.918401 -19.054499 1.591903 -2.728560 23.815262 -8.915543 3.914176 -5.258480 -0.828498 1.902618 18.264595 1.616528 14.586283 -1.168371 27.911108 -3.021169 1.393269 -4.147195 5.801395 -6.553433 4.335325 6.780485 0.000000 0.000000 0.000000 2.371734 28.137644 -0.661704 -0.182007 -0.645503 0.315806 3.191039 -1.391463 -20.427500 0.000000 0.000000 0.000000 
-23.584661 95.312386 29.888016 -1.304163 17.777573 -176.805420 -1.685040 8.528321 1.264710 0.734015 -0.712752 1.143646 4.782797 25.754477 23.028656 -17.678802 3.315892 22.570921 15.760700 -0.704772 -7.592392 -16.278412 -2.781158 0.865415 1.348471 1.341507 1.790982 -20.192333 1.838863 -2.912047 -19.070719 1.589597 -2.731141 23.814457 -8.909670 3.903439 -5.263900 -0.827280 1.878471 18.249510 1.616496 14.597386 -1.192862 27.935511 -3.019805 1.393168 -4.147299 5.703799 -6.561909 4.348168 6.888358 0.000000 0.000000 0.000000 2.349919 28.164745 -0.661429 -0.184283 -0.657104 0.328012 3.202204 -1.384944 -20.443554 0.000000 0.000000 0.000000 
